<svg width="18" height="16" viewBox="0 0 18 16" fill="none" xmlns="http://www.w3.org/2000/svg">
<path d="M14.9264 1.73315H14.3841V1.20723C14.3841 0.541279 13.7929 0 13.0655 0C12.3375 0 11.7469 0.541279 11.7469 1.20723V1.73271H10.3937V1.20723C10.3937 0.541279 9.8025 0 9.07503 0C8.34756 0 7.7564 0.541279 7.7564 1.20723V1.73271H6.4032V1.20723C6.4032 0.541279 5.81204 0 5.08458 0C4.35711 0 3.76595 0.541279 3.76595 1.20723V1.73271H3.07355C1.91642 1.73271 0.974609 2.56987 0.974609 3.59843V14.1343C0.974609 15.1628 1.91642 16 3.07355 16H14.9264C16.084 16 17.0253 15.1628 17.0253 14.1343V3.59843C17.0253 2.57031 16.0835 1.73315 14.9264 1.73315ZM12.4877 1.20723C12.4877 0.904766 12.7469 0.65849 13.0655 0.65849C13.3845 0.65849 13.6433 0.904766 13.6433 1.20723V3.35655C13.6433 3.65901 13.3845 3.90529 13.0655 3.90529C12.7469 3.90529 12.4877 3.65901 12.4877 3.35655V1.20723ZM8.4972 1.20723C8.4972 0.904766 8.75648 0.65849 9.07503 0.65849C9.39357 0.65849 9.65285 0.904766 9.65285 1.20723V3.35655C9.65285 3.65901 9.39357 3.90529 9.07503 3.90529C8.75648 3.90529 8.4972 3.65901 8.4972 3.35655V1.20723ZM4.50626 1.20723C4.50626 0.904766 4.76554 0.65849 5.08408 0.65849C5.40263 0.65849 5.66191 0.904766 5.66191 1.20723V3.35655C5.66191 3.65901 5.40263 3.90529 5.08408 3.90529C4.76554 3.90529 4.50626 3.65901 4.50626 3.35655V1.20723ZM15.7906 14.1347C15.7906 14.5583 15.403 14.903 14.9264 14.903H3.07355C2.59697 14.903 2.20928 14.5583 2.20928 14.1347V4.47686H15.7906V14.1347Z" fill="#F4B955"/>
<path d="M5.58964 6.42072H3.32031V8.21576H5.58964V6.42072Z" fill="#F4B955"/>
<path d="M8.61943 6.42072H6.34961V8.21576H8.61943V6.42072Z" fill="#F4B955"/>
<path d="M11.6502 6.42072H9.38086V8.21576H11.6502V6.42072Z" fill="#F4B955"/>
<path d="M14.6795 6.42072H12.4097V8.21576H14.6795V6.42072Z" fill="#F4B955"/>
<path d="M5.58964 8.81671H3.32031V10.6104H5.58964V8.81671Z" fill="#F4B955"/>
<path d="M8.61943 8.81671H6.34961V10.6104H8.61943V8.81671Z" fill="#F4B955"/>
<path d="M11.6502 8.81671H9.38086V10.6104H11.6502V8.81671Z" fill="#F4B955"/>
<path d="M14.6795 8.81671H12.4097V10.6104H14.6795V8.81671Z" fill="#F4B955"/>
<path d="M5.58964 11.2119H3.32031V13.0056H5.58964V11.2119Z" fill="#F4B955"/>
<path d="M8.61943 11.2119H6.34961V13.0056H8.61943V11.2119Z" fill="#F4B955"/>
<path d="M11.6502 11.2119H9.38086V13.0056H11.6502V11.2119Z" fill="#F4B955"/>
<path d="M14.6795 11.2119H12.4097V13.0056H14.6795V11.2119Z" fill="#F4B955"/>
</svg>
